<svg height="16" viewBox="0 0 16 16" width="16" xmlns="http://www.w3.org/2000/svg"><path d="m15.2888928 6h-8.57778561c-.39273366 0-.71110719.31837353-.71110719.71110719v1.57778562c0 .39273366.31837353.71110719.71110719.71110719h5.57778561c.3927337 0 .7111072.31837353.7111072.71110719v.28889281.8666784c0 1.178201-.9551206 2.1333216-2.1333216 2.1333216h-7.15565942c-.39268494 0-.71101898-.318334-.71101898-.711019v-7.15565943c0-1.17820097.9551206-2.13332157 2.13332157-2.13332157h10.15557123c.3927337 0 .7111072-.31837353.7111072-.71110719v-1.57734472c0-.39273366-.3183735-.71110719-.7111072-.71110719h-9.95558887c-2.94550243 0-5.33330393 2.3878015-5.33330393 5.33330393v9.95514797c0 .3927337.31837353.7111072.71110719.7111072h10.28889281c2.7614237 0 5-2.2385763 5-5v-4.28889281c0-.39273366-.3183735-.71110719-.7111072-.71110719z" fill="#c71d23" fill-rule="evenodd"/></svg>